<?xml version="1.0" encoding="UTF-8" standalone="no"?>
<!DOCTYPE svg PUBLIC "-//W3C//DTD SVG 1.1//EN"
 "http://www.w3.org/Graphics/SVG/1.1/DTD/svg11.dtd">
<!-- Generated by graphviz version 2.38.0 (20140413.2041)
 -->
<!-- Title: diode Pages: 1 -->
<svg width="674pt" height="100pt"
 viewBox="0.00 0.00 674.12 99.59" xmlns="http://www.w3.org/2000/svg" xmlns:xlink="http://www.w3.org/1999/xlink">
<g id="graph0" class="graph" transform="scale(1 1) rotate(0) translate(4 95.5901)">
<title>diode</title>
<!-- fia -->
<g id="node1" class="node"><title>fia</title>
<text text-anchor="middle" x="21.5" y="-42.0951" font-family="Times,serif" font-size="14.00">File</text>
</g>
<!-- serv -->
<g id="node3" class="node"><title>serv</title>
<ellipse fill="white" stroke="black" cx="116" cy="-45.7951" rx="36" ry="36"/>
<text text-anchor="middle" x="116" y="-42.0951" font-family="Times,serif" font-size="14.00">Server</text>
</g>
<!-- fia&#45;&gt;serv -->
<g id="edge1" class="edge"><title>fia&#45;&gt;serv</title>
<path fill="none" stroke="black" d="M43.0287,-45.7951C53.8867,-45.7951 67.5178,-45.7951 79.9885,-45.7951"/>
</g>
<!-- fib -->
<g id="node2" class="node"><title>fib</title>
<text text-anchor="middle" x="644.616" y="-42.0951" font-family="Times,serif" font-size="14.00">File</text>
</g>
<!-- ega -->
<g id="node4" class="node"><title>ega</title>
<ellipse fill="white" stroke="black" cx="255.263" cy="-45.7951" rx="38.0498" ry="38.0498"/>
<ellipse fill="none" stroke="black" cx="255.263" cy="-45.7951" rx="42.0275" ry="42.0275"/>
<text text-anchor="middle" x="255.263" y="-49.5951" font-family="Times,serif" font-size="14.00">Emitting</text>
<text text-anchor="middle" x="255.263" y="-34.5951" font-family="Times,serif" font-size="14.00">gateway</text>
</g>
<!-- serv&#45;&gt;ega -->
<g id="edge2" class="edge"><title>serv&#45;&gt;ega</title>
<path fill="none" stroke="black" d="M162.648,-45.7951C175.4,-45.7951 189.349,-45.7951 202.43,-45.7951"/>
<polygon fill="black" stroke="black" points="162.349,-42.2952 152.349,-45.7951 162.349,-49.2952 162.349,-42.2952"/>
<polygon fill="black" stroke="black" points="202.696,-49.2952 212.695,-45.7951 202.695,-42.2952 202.696,-49.2952"/>
<text text-anchor="middle" x="182.5" y="-49.5951" font-family="Times,serif" font-size="14.00">TCP</text>
</g>
<!-- rga -->
<g id="node5" class="node"><title>rga</title>
<ellipse fill="white" stroke="black" cx="407.321" cy="-45.7951" rx="41.6089" ry="41.6089"/>
<ellipse fill="none" stroke="black" cx="407.321" cy="-45.7951" rx="45.5911" ry="45.5911"/>
<text text-anchor="middle" x="407.321" y="-49.5951" font-family="Times,serif" font-size="14.00">Receiving</text>
<text text-anchor="middle" x="407.321" y="-34.5951" font-family="Times,serif" font-size="14.00">gateway</text>
</g>
<!-- ega&#45;&gt;rga -->
<g id="edge3" class="edge"><title>ega&#45;&gt;rga</title>
<path fill="none" stroke="red" d="M297.664,-45.7951C314.198,-45.7951 333.48,-45.7951 351.172,-45.7951"/>
<polygon fill="red" stroke="red" points="351.372,-49.2952 361.372,-45.7951 351.372,-42.2952 351.372,-49.2952"/>
<text text-anchor="middle" x="329.526" y="-49.5951" font-family="Times,serif" font-size="14.00">UDP</text>
</g>
<!-- clie -->
<g id="node6" class="node"><title>clie</title>
<ellipse fill="white" stroke="black" cx="550.116" cy="-45.7951" rx="36" ry="36"/>
<text text-anchor="middle" x="550.116" y="-42.0951" font-family="Times,serif" font-size="14.00">Client</text>
</g>
<!-- rga&#45;&gt;clie -->
<g id="edge4" class="edge"><title>rga&#45;&gt;clie</title>
<path fill="none" stroke="black" d="M463.615,-45.7951C476.858,-45.7951 490.849,-45.7951 503.592,-45.7951"/>
<polygon fill="black" stroke="black" points="463.257,-42.2952 453.257,-45.7951 463.257,-49.2952 463.257,-42.2952"/>
<polygon fill="black" stroke="black" points="503.96,-49.2952 513.959,-45.7951 503.959,-42.2952 503.96,-49.2952"/>
<text text-anchor="middle" x="483.616" y="-49.5951" font-family="Times,serif" font-size="14.00">TCP</text>
</g>
<!-- clie&#45;&gt;fib -->
<g id="edge5" class="edge"><title>clie&#45;&gt;fib</title>
<path fill="none" stroke="black" d="M586.35,-45.7951C598.706,-45.7951 612.175,-45.7951 622.945,-45.7951"/>
</g>
</g>
</svg>
