<?xml version="1.0" encoding="UTF-8" standalone="no"?>
<!DOCTYPE svg PUBLIC "-//W3C//DTD SVG 1.1//EN"
 "http://www.w3.org/Graphics/SVG/1.1/DTD/svg11.dtd">
<!-- Generated by graphviz version 2.38.0 (20140413.2041)
 -->
<!-- Title: diode Pages: 1 -->
<svg width="775pt" height="100pt"
 viewBox="0.00 0.00 775.12 99.59" xmlns="http://www.w3.org/2000/svg" xmlns:xlink="http://www.w3.org/1999/xlink">
<g id="graph0" class="graph" transform="scale(1 1) rotate(0) translate(4 95.5901)">
<title>diode</title>
<!-- fia -->
<g id="node1" class="node"><title>fia</title>
<text text-anchor="middle" x="21.5" y="-42.0951" font-family="Times,serif" font-size="14.00">File</text>
</g>
<!-- serv -->
<g id="node3" class="node"><title>serv</title>
<ellipse fill="white" stroke="black" cx="116" cy="-45.7951" rx="36" ry="36"/>
<text text-anchor="middle" x="116" y="-42.0951" font-family="Times,serif" font-size="14.00">Server</text>
</g>
<!-- fia&#45;&gt;serv -->
<g id="edge1" class="edge"><title>fia&#45;&gt;serv</title>
<path fill="none" stroke="black" d="M43.0287,-45.7951C53.8867,-45.7951 67.5178,-45.7951 79.9885,-45.7951"/>
</g>
<!-- fib -->
<g id="node2" class="node"><title>fib</title>
<text text-anchor="middle" x="745.616" y="-42.0951" font-family="Times,serif" font-size="14.00">File</text>
</g>
<!-- ega -->
<g id="node4" class="node"><title>ega</title>
<ellipse fill="white" stroke="black" cx="283.263" cy="-45.7951" rx="38.0498" ry="38.0498"/>
<ellipse fill="none" stroke="black" cx="283.263" cy="-45.7951" rx="42.0275" ry="42.0275"/>
<text text-anchor="middle" x="283.263" y="-49.5951" font-family="Times,serif" font-size="14.00">Emitting</text>
<text text-anchor="middle" x="283.263" y="-34.5951" font-family="Times,serif" font-size="14.00">gateway</text>
</g>
<!-- serv&#45;&gt;ega -->
<g id="edge2" class="edge"><title>serv&#45;&gt;ega</title>
<path fill="none" stroke="black" d="M162.195,-45.7951C183.392,-45.7951 208.758,-45.7951 230.702,-45.7951"/>
<polygon fill="black" stroke="black" points="162.048,-42.2952 152.048,-45.7951 162.048,-49.2952 162.048,-42.2952"/>
<polygon fill="black" stroke="black" points="230.84,-49.2952 240.84,-45.7951 230.84,-42.2952 230.84,-49.2952"/>
<text text-anchor="middle" x="196.5" y="-49.5951" font-family="Times,serif" font-size="14.00"> &#160;10.42.1 </text>
<text text-anchor="middle" x="232.84" y="-28.2387" font-family="Times,serif" font-size="14.00">.2</text>
<text text-anchor="middle" x="160.048" y="-55.9515" font-family="Times,serif" font-size="14.00">.1</text>
</g>
<!-- rga -->
<g id="node5" class="node"><title>rga</title>
<ellipse fill="white" stroke="black" cx="480.321" cy="-45.7951" rx="41.6089" ry="41.6089"/>
<ellipse fill="none" stroke="black" cx="480.321" cy="-45.7951" rx="45.5911" ry="45.5911"/>
<text text-anchor="middle" x="480.321" y="-49.5951" font-family="Times,serif" font-size="14.00">Receiving</text>
<text text-anchor="middle" x="480.321" y="-34.5951" font-family="Times,serif" font-size="14.00">gateway</text>
</g>
<!-- ega&#45;&gt;rga -->
<g id="edge3" class="edge"><title>ega&#45;&gt;rga</title>
<path fill="none" stroke="red" d="M325.63,-45.7951C354.265,-45.7951 392.698,-45.7951 423.967,-45.7951"/>
<polygon fill="red" stroke="red" points="424.272,-49.2952 434.272,-45.7951 424.272,-42.2952 424.272,-49.2952"/>
<text text-anchor="middle" x="380.026" y="-49.5951" font-family="Times,serif" font-size="14.00"> &#160;192.168.42 </text>
<text text-anchor="middle" x="426.272" y="-28.2387" font-family="Times,serif" font-size="14.00">.1</text>
<text text-anchor="middle" x="333.63" y="-55.9515" font-family="Times,serif" font-size="14.00">.2</text>
</g>
<!-- clie -->
<g id="node6" class="node"><title>clie</title>
<ellipse fill="white" stroke="black" cx="651.116" cy="-45.7951" rx="36" ry="36"/>
<text text-anchor="middle" x="651.116" y="-42.0951" font-family="Times,serif" font-size="14.00">Client</text>
</g>
<!-- rga&#45;&gt;clie -->
<g id="edge4" class="edge"><title>rga&#45;&gt;clie</title>
<path fill="none" stroke="black" d="M536.577,-45.7951C558.634,-45.7951 583.717,-45.7951 604.688,-45.7951"/>
<polygon fill="black" stroke="black" points="536.555,-42.2952 526.555,-45.7951 536.555,-49.2952 536.555,-42.2952"/>
<polygon fill="black" stroke="black" points="604.93,-49.2952 614.93,-45.7951 604.93,-42.2952 604.93,-49.2952"/>
<text text-anchor="middle" x="570.616" y="-49.5951" font-family="Times,serif" font-size="14.00"> &#160;10.42.0 </text>
<text text-anchor="middle" x="606.93" y="-28.2387" font-family="Times,serif" font-size="14.00">.2</text>
<text text-anchor="middle" x="534.555" y="-55.9515" font-family="Times,serif" font-size="14.00">.1</text>
</g>
<!-- clie&#45;&gt;fib -->
<g id="edge5" class="edge"><title>clie&#45;&gt;fib</title>
<path fill="none" stroke="black" d="M687.35,-45.7951C699.706,-45.7951 713.175,-45.7951 723.945,-45.7951"/>
</g>
</g>
</svg>
