<?xml version="1.0" encoding="UTF-8" standalone="no"?>
<!DOCTYPE svg PUBLIC "-//W3C//DTD SVG 1.1//EN"
 "http://www.w3.org/Graphics/SVG/1.1/DTD/svg11.dtd">
<!-- Generated by graphviz version 2.38.0 (20140413.2041)
 -->
<!-- Title: diode Pages: 1 -->
<svg width="787pt" height="100pt"
 viewBox="0.00 0.00 787.12 99.59" xmlns="http://www.w3.org/2000/svg" xmlns:xlink="http://www.w3.org/1999/xlink">
<g id="graph0" class="graph" transform="scale(1 1) rotate(0) translate(4 95.5901)">
<title>diode</title>
<!-- fia -->
<g id="node1" class="node"><title>fia</title>
<text text-anchor="middle" x="21.5" y="-42.0951" font-family="Times,serif" font-size="14.00">File</text>
</g>
<!-- serv -->
<g id="node3" class="node"><title>serv</title>
<ellipse fill="white" stroke="black" cx="116" cy="-45.7951" rx="36" ry="36"/>
<text text-anchor="middle" x="116" y="-42.0951" font-family="Times,serif" font-size="14.00">Server</text>
</g>
<!-- fia&#45;&gt;serv -->
<g id="edge1" class="edge"><title>fia&#45;&gt;serv</title>
<path fill="none" stroke="black" d="M43.0287,-45.7951C53.8867,-45.7951 67.5178,-45.7951 79.9885,-45.7951"/>
</g>
<!-- fib -->
<g id="node2" class="node"><title>fib</title>
<text text-anchor="middle" x="757.616" y="-42.0951" font-family="Times,serif" font-size="14.00">File</text>
</g>
<!-- ega -->
<g id="node4" class="node"><title>ega</title>
<ellipse fill="white" stroke="black" cx="287.263" cy="-45.7951" rx="38.0498" ry="38.0498"/>
<ellipse fill="none" stroke="black" cx="287.263" cy="-45.7951" rx="42.0275" ry="42.0275"/>
<text text-anchor="middle" x="287.263" y="-49.5951" font-family="Times,serif" font-size="14.00">Emitting</text>
<text text-anchor="middle" x="287.263" y="-34.5951" font-family="Times,serif" font-size="14.00">gateway</text>
</g>
<!-- serv&#45;&gt;ega -->
<g id="edge2" class="edge"><title>serv&#45;&gt;ega</title>
<path fill="none" stroke="black" d="M162.309,-45.7951C184.604,-45.7951 211.581,-45.7951 234.667,-45.7951"/>
<polygon fill="black" stroke="black" points="162.071,-42.2952 152.071,-45.7951 162.071,-49.2952 162.071,-42.2952"/>
<polygon fill="black" stroke="black" points="234.97,-49.2952 244.97,-45.7951 234.97,-42.2952 234.97,-49.2952"/>
<text text-anchor="middle" x="198.5" y="-49.5951" font-family="Times,serif" font-size="14.00"> &#160;10.42.1 &#160;</text>
<text text-anchor="middle" x="236.97" y="-28.2387" font-family="Times,serif" font-size="14.00">.2</text>
<text text-anchor="middle" x="160.071" y="-55.9515" font-family="Times,serif" font-size="14.00">.1</text>
</g>
<!-- rga -->
<g id="node5" class="node"><title>rga</title>
<ellipse fill="white" stroke="black" cx="488.321" cy="-45.7951" rx="41.6089" ry="41.6089"/>
<ellipse fill="none" stroke="black" cx="488.321" cy="-45.7951" rx="45.5911" ry="45.5911"/>
<text text-anchor="middle" x="488.321" y="-49.5951" font-family="Times,serif" font-size="14.00">Receiving</text>
<text text-anchor="middle" x="488.321" y="-34.5951" font-family="Times,serif" font-size="14.00">gateway</text>
</g>
<!-- ega&#45;&gt;rga -->
<g id="edge3" class="edge"><title>ega&#45;&gt;rga</title>
<path fill="none" stroke="red" d="M329.992,-45.7951C359.619,-45.7951 399.703,-45.7951 431.995,-45.7951"/>
<polygon fill="red" stroke="red" points="432.183,-49.2952 442.183,-45.7951 432.183,-42.2952 432.183,-49.2952"/>
<text text-anchor="middle" x="386.026" y="-49.5951" font-family="Times,serif" font-size="14.00"> &#160;192.168.42 &#160;</text>
<text text-anchor="middle" x="434.183" y="-28.2387" font-family="Times,serif" font-size="14.00">.1</text>
<text text-anchor="middle" x="337.992" y="-55.9515" font-family="Times,serif" font-size="14.00">.2</text>
</g>
<!-- clie -->
<g id="node6" class="node"><title>clie</title>
<ellipse fill="white" stroke="black" cx="663.116" cy="-45.7951" rx="36" ry="36"/>
<text text-anchor="middle" x="663.116" y="-42.0951" font-family="Times,serif" font-size="14.00">Client</text>
</g>
<!-- rga&#45;&gt;clie -->
<g id="edge4" class="edge"><title>rga&#45;&gt;clie</title>
<path fill="none" stroke="black" d="M544.377,-45.7951C567.724,-45.7951 594.605,-45.7951 616.782,-45.7951"/>
<polygon fill="black" stroke="black" points="544.27,-42.2952 534.27,-45.7951 544.27,-49.2952 544.27,-42.2952"/>
<polygon fill="black" stroke="black" points="616.931,-49.2952 626.931,-45.7951 616.931,-42.2952 616.931,-49.2952"/>
<text text-anchor="middle" x="580.616" y="-49.5951" font-family="Times,serif" font-size="14.00"> &#160;10.42.0 &#160;</text>
<text text-anchor="middle" x="618.931" y="-28.2387" font-family="Times,serif" font-size="14.00">.2</text>
<text text-anchor="middle" x="542.27" y="-55.9515" font-family="Times,serif" font-size="14.00">.1</text>
</g>
<!-- clie&#45;&gt;fib -->
<g id="edge5" class="edge"><title>clie&#45;&gt;fib</title>
<path fill="none" stroke="black" d="M699.35,-45.7951C711.706,-45.7951 725.175,-45.7951 735.945,-45.7951"/>
</g>
</g>
</svg>
