<?xml version="1.0" encoding="UTF-8" standalone="no"?>
<!DOCTYPE svg PUBLIC "-//W3C//DTD SVG 1.1//EN"
 "http://www.w3.org/Graphics/SVG/1.1/DTD/svg11.dtd">
<!-- Generated by graphviz version 2.38.0 (20140413.2041)
 -->
<!-- Title: diode Pages: 1 -->
<svg width="780pt" height="100pt"
 viewBox="0.00 0.00 780.12 99.59" xmlns="http://www.w3.org/2000/svg" xmlns:xlink="http://www.w3.org/1999/xlink">
<g id="graph0" class="graph" transform="scale(1 1) rotate(0) translate(4 95.5901)">
<title>diode</title>
<!-- fia -->
<g id="node1" class="node"><title>fia</title>
<text text-anchor="middle" x="21.5" y="-42.0951" font-family="Times,serif" font-size="14.00">File</text>
</g>
<!-- serv -->
<g id="node3" class="node"><title>serv</title>
<ellipse fill="white" stroke="black" cx="116" cy="-45.7951" rx="36" ry="36"/>
<text text-anchor="middle" x="116" y="-42.0951" font-family="Times,serif" font-size="14.00">Server</text>
</g>
<!-- fia&#45;&gt;serv -->
<g id="edge1" class="edge"><title>fia&#45;&gt;serv</title>
<path fill="none" stroke="black" d="M43.0287,-45.7951C53.8867,-45.7951 67.5178,-45.7951 79.9885,-45.7951"/>
</g>
<!-- fib -->
<g id="node2" class="node"><title>fib</title>
<text text-anchor="middle" x="750.616" y="-42.0951" font-family="Times,serif" font-size="14.00">File</text>
</g>
<!-- ega -->
<g id="node4" class="node"><title>ega</title>
<ellipse fill="white" stroke="black" cx="287.263" cy="-45.7951" rx="38.0498" ry="38.0498"/>
<ellipse fill="none" stroke="black" cx="287.263" cy="-45.7951" rx="42.0275" ry="42.0275"/>
<text text-anchor="middle" x="287.263" y="-49.5951" font-family="Times,serif" font-size="14.00">Emitting</text>
<text text-anchor="middle" x="287.263" y="-34.5951" font-family="Times,serif" font-size="14.00">gateway</text>
</g>
<!-- serv&#45;&gt;ega -->
<g id="edge2" class="edge"><title>serv&#45;&gt;ega</title>
<path fill="none" stroke="black" d="M162.309,-45.7951C184.604,-45.7951 211.581,-45.7951 234.667,-45.7951"/>
<polygon fill="black" stroke="black" points="162.071,-42.2952 152.071,-45.7951 162.071,-49.2952 162.071,-42.2952"/>
<polygon fill="black" stroke="black" points="234.97,-49.2952 244.97,-45.7951 234.97,-42.2952 234.97,-49.2952"/>
<text text-anchor="middle" x="198.5" y="-49.5951" font-family="Times,serif" font-size="14.00"> &#160;10.42.1 &#160;</text>
<text text-anchor="middle" x="236.97" y="-28.2387" font-family="Times,serif" font-size="14.00">.2</text>
<text text-anchor="middle" x="160.071" y="-55.9515" font-family="Times,serif" font-size="14.00">.1</text>
</g>
<!-- rga -->
<g id="node5" class="node"><title>rga</title>
<ellipse fill="white" stroke="black" cx="481.321" cy="-45.7951" rx="41.6089" ry="41.6089"/>
<ellipse fill="none" stroke="black" cx="481.321" cy="-45.7951" rx="45.5911" ry="45.5911"/>
<text text-anchor="middle" x="481.321" y="-49.5951" font-family="Times,serif" font-size="14.00">Receiving</text>
<text text-anchor="middle" x="481.321" y="-34.5951" font-family="Times,serif" font-size="14.00">gateway</text>
</g>
<!-- ega&#45;&gt;rga -->
<g id="edge3" class="edge"><title>ega&#45;&gt;rga</title>
<path fill="none" stroke="red" d="M329.937,-45.7951C357.888,-45.7951 395.001,-45.7951 425.364,-45.7951"/>
<polygon fill="red" stroke="red" points="425.379,-49.2952 435.379,-45.7951 425.379,-42.2952 425.379,-49.2952"/>
<text text-anchor="middle" x="382.526" y="-49.5951" font-family="Times,serif" font-size="14.00"> &#160;192.168.0 &#160;</text>
<text text-anchor="middle" x="427.379" y="-28.2387" font-family="Times,serif" font-size="14.00">.1</text>
<text text-anchor="middle" x="337.937" y="-55.9515" font-family="Times,serif" font-size="14.00">.2</text>
</g>
<!-- clie -->
<g id="node6" class="node"><title>clie</title>
<ellipse fill="white" stroke="black" cx="656.116" cy="-45.7951" rx="36" ry="36"/>
<text text-anchor="middle" x="656.116" y="-42.0951" font-family="Times,serif" font-size="14.00">Client</text>
</g>
<!-- rga&#45;&gt;clie -->
<g id="edge4" class="edge"><title>rga&#45;&gt;clie</title>
<path fill="none" stroke="black" d="M537.377,-45.7951C560.724,-45.7951 587.605,-45.7951 609.782,-45.7951"/>
<polygon fill="black" stroke="black" points="537.27,-42.2952 527.27,-45.7951 537.27,-49.2952 537.27,-42.2952"/>
<polygon fill="black" stroke="black" points="609.931,-49.2952 619.931,-45.7951 609.931,-42.2952 609.931,-49.2952"/>
<text text-anchor="middle" x="573.616" y="-49.5951" font-family="Times,serif" font-size="14.00"> &#160;10.42.0 &#160;</text>
<text text-anchor="middle" x="611.931" y="-28.2387" font-family="Times,serif" font-size="14.00">.1</text>
<text text-anchor="middle" x="535.27" y="-55.9515" font-family="Times,serif" font-size="14.00">.2</text>
</g>
<!-- clie&#45;&gt;fib -->
<g id="edge5" class="edge"><title>clie&#45;&gt;fib</title>
<path fill="none" stroke="black" d="M692.35,-45.7951C704.706,-45.7951 718.175,-45.7951 728.945,-45.7951"/>
</g>
</g>
</svg>
